<svg xmlns="http://www.w3.org/2000/svg" viewBox="0 0 64 64" id="feather">
  <path fill="#4aa5ff" d="M45.0146,35.00008c16.2952-5.13547,14.30524-25.34345,13-30-.95322,.06906-7.48488,.63614-13.98232,3.86626-3.59644,1.78792-6.30009,4.98093-7.57016,8.79117l-1.44752,4.34257s-1.91394-3.1579-2-3c-2.78864,5.117-2.98407,10.40411-3,11-.18579,6.95074,2.72632,12.0332,4,14,2.34613-.7854,6.9787-2.60687,11.63513-6.45941l-.63513-2.54059Z"></path>
  <path fill="#21257c" d="M34.01441 45.00008c-.33203 0-.65137-.16602-.83936-.45654-1.99316-3.07812-4.33301-8.10498-4.16016-14.57031.02686-1.00586.30518-6.28418 3.12158-11.45166.17139-.31445.50732-.51904.86523-.52686.49023-.01562.6665-.01367 1.73975 1.66211 0 0 .77197-2.31592.77197-2.31592 1.35986-4.08008 4.30273-7.49512 8.07373-9.37012 6.56592-3.26416 13.10986-3.87793 14.35498-3.96826.48828-.03516.93262.29004 1.04541.76758 1.44468 5.06397 3.18692 25.13338-12.78271 30.86914l.41504 1.65869c.09326.37354-.03613.76758-.33252 1.01318-4.61376 3.73247-8.97144 5.74839-12.27295 6.68896zm-.8418-24.07031c-3.93771 9.3398-1.93237 16.16173 1.26807 21.86328 2.70312-.9751 6.40674-2.6958 10.08447-5.62744l-.48096-1.92285c-.12695-.50781.15918-1.02734.65576-1.19189 14.11574-4.3726 13.98598-21.29836 12.51709-27.97314-2.19727.24023-7.45752 1.05811-12.73926 3.68408-3.29834 1.63965-5.87402 4.63281-7.06689 8.21191l-1.44775 4.34277c-.23398.79179-1.40285.9217-1.80371.20162-.31787-.52437-.67334-1.09664-.98682-1.58834zM39.18042 59.96443c-1.92773 0-4-.75146-5.79688-2.18213-.43213-.34375-.50391-.97314-.15967-1.40479.34326-.43213.97363-.50293 1.40479-.15967 2.20759 1.74788 4.81085 2.24714 6.69482 1.23389.48096-.24317 1.37647-.69581 1.61035-1.50831.23975-.83594-.09814-1.81934-.45605-2.86035-1.02331-2.36891-.99295-5.32938 1.632-6.80954 3.06439-1.8562 6.38512-.50895 9.57259-.45656.57568-.00197 1.64697-.11379 1.92773-.94728.16117-.54816.12641-1.2213.29395-1.833.4374-2.20103 3.55273-3.52072 5.29106-3.01843 1.27939.27046.92544 2.19032-.37803 1.96373-.88264-.29102-2.77206.44983-2.97648 1.55527-.14245 2.48556-1.11322 4.26855-4.12808 4.27965-2.84429.03787-6.10418-1.29932-8.56873.16846-1.65483.90805-1.50371 2.66481-.77428 4.44732.42223 1.22849.90075 2.62058.4862 4.06297-.47412 1.65137-1.98486 2.41504-2.63037 2.74121-.92302.48825-1.95809.72802-3.04492.72754z"></path>
  <rect width="26" height="20" x="3.006" y="39" fill="#e6f3ff" rx="5" ry="5"></rect>
  <path fill="#4aa5ff" d="M13.00611,33.00008h6c1.10383,0,2,.89617,2,2v4H11.00611v-4c0-1.10383,.89617-2,2-2Z"></path>
  <path fill="#21257c" d="M21.00611,40.00008H11.00611c-.55225,0-1-.44775-1-1v-4c0-1.6543,1.3457-3,3-3h6c1.6543,0,3,1.3457,3,3v4c0,.55225-.44775,1-1,1Zm-9-2h8v-3c0-.55127-.44873-1-1-1h-6c-.55127,0-1,.44873-1,1v3Z"></path>
  <rect width="26" height="8" x="3.006" y="45" fill="#4aa5ff"></rect>
  <path fill="#21257c" d="M34.01343 54.00008c-.5127 0-.94922-.39209-.99512-.91211-.38916-4.42285-.17041-11.22217 3.08301-18.49609 4.0332-9.01709 10.74316-14.1709 14.38428-16.44043 1.1188-.66871 2.16786.97368 1.05757 1.69729-10.36947 6.15666-17.98742 19.64062-16.53237 33.06359.05391.58116-.41441 1.091-.99737 1.08775zM24.00611 60.00008H8.00611c-3.30859 0-6-2.69141-6-6v-10c0-3.30859 2.69141-6 6-6H24.00611c3.30859 0 6 2.69141 6 6v10c0 3.30859-2.69141 6-6 6zM8.00611 40.00008c-2.20557 0-4 1.79443-4 4v10c0 2.20557 1.79443 4 4 4H24.00611c2.20557 0 4-1.79443 4-4v-10c0-2.20557-1.79443-4-4-4H8.00611z"></path>
</svg>
